
<svg xmlns="http://www.w3.org/2000/svg" style="display: none;" aria-hidden="true">
  <defs>
    <symbol id="i-cal" viewBox="0 0 24 24" fill="none" stroke="currentColor" stroke-width="1.75" stroke-linecap="round" stroke-linejoin="round">
      <path d="M3 9h18M5 5h14a2 2 0 0 1 2 2v12a2 2 0 0 1-2 2H5a2 2 0 0 1-2-2V7a2 2 0 0 1 2-2zM16 3v4M8 3v4"></path>
    </symbol>
    <symbol id="i-link" viewBox="0 0 24 24" fill="none" stroke="currentColor" stroke-width="1.75" stroke-linecap="round" stroke-linejoin="round">
      <path d="M10 13a5 5 0 0 0 7.07 0l3-3a5 5 0 1 0-7.07-7.07l-1 1M14 11a5 5 0 0 0-7.07 0l-3 3a5 5 0 1 0 7.07 7.07l1-1"></path>
    </symbol>
    <symbol id="i-clock" viewBox="0 0 24 24" fill="none" stroke="currentColor" stroke-width="1.75" stroke-linecap="round" stroke-linejoin="round">
      <circle cx="12" cy="12" r="9"></circle><path d="M12 7v5l3 2"></path>
    </symbol>
    <symbol id="i-video" viewBox="0 0 24 24" fill="none" stroke="currentColor" stroke-width="1.75" stroke-linecap="round" stroke-linejoin="round">
      <path d="M23 7l-7 5 7 5V7zM14 5H3a2 2 0 0 0-2 2v10a2 2 0 0 0 2 2h11a2 2 0 0 0 2-2V7a2 2 0 0 0-2-2z"></path>
    </symbol>
    <symbol id="i-globe" viewBox="0 0 24 24" fill="none" stroke="currentColor" stroke-width="1.75" stroke-linecap="round" stroke-linejoin="round">
      <circle cx="12" cy="12" r="9"></circle><path d="M3 12h18M12 3a14 14 0 0 1 0 18M12 3a14 14 0 0 0 0 18"></path>
    </symbol>
    <symbol id="i-money" viewBox="0 0 24 24" fill="none" stroke="currentColor" stroke-width="1.75" stroke-linecap="round" stroke-linejoin="round">
      <path d="M12 2v20M17 5H9.5a3.5 3.5 0 0 0 0 7h5a3.5 3.5 0 0 1 0 7H6"></path>
    </symbol>
    <symbol id="i-users" viewBox="0 0 24 24" fill="none" stroke="currentColor" stroke-width="1.75" stroke-linecap="round" stroke-linejoin="round">
      <path d="M17 21v-2a4 4 0 0 0-4-4H5a4 4 0 0 0-4 4v2M9 11a4 4 0 1 0 0-8 4 4 0 0 0 0 8zM23 21v-2a4 4 0 0 0-3-3.87M16 3.13a4 4 0 0 1 0 7.75"></path>
    </symbol>
    <symbol id="i-settings" viewBox="0 0 24 24" fill="none" stroke="currentColor" stroke-width="1.75" stroke-linecap="round" stroke-linejoin="round">
      <circle cx="12" cy="12" r="3"></circle><path d="M19.4 15a1.7 1.7 0 0 0 .3 1.8l.1.1a2 2 0 1 1-2.8 2.8l-.1-.1a1.7 1.7 0 0 0-1.8-.3 1.7 1.7 0 0 0-1 1.5V21a2 2 0 1 1-4 0v-.1a1.7 1.7 0 0 0-1.1-1.5 1.7 1.7 0 0 0-1.8.3l-.1.1a2 2 0 1 1-2.8-2.8l.1-.1a1.7 1.7 0 0 0 .3-1.8 1.7 1.7 0 0 0-1.5-1H3a2 2 0 1 1 0-4h.1a1.7 1.7 0 0 0 1.5-1.1 1.7 1.7 0 0 0-.3-1.8l-.1-.1a2 2 0 1 1 2.8-2.8l.1.1a1.7 1.7 0 0 0 1.8.3H9a1.7 1.7 0 0 0 1-1.5V3a2 2 0 1 1 4 0v.1a1.7 1.7 0 0 0 1 1.5 1.7 1.7 0 0 0 1.8-.3l.1-.1a2 2 0 1 1 2.8 2.8l-.1.1a1.7 1.7 0 0 0-.3 1.8V9a1.7 1.7 0 0 0 1.5 1H21a2 2 0 1 1 0 4h-.1a1.7 1.7 0 0 0-1.5 1z"></path>
    </symbol>
    <symbol id="i-workflow" viewBox="0 0 24 24" fill="none" stroke="currentColor" stroke-width="1.75" stroke-linecap="round" stroke-linejoin="round">
      <path d="M3 3h6v6H3zM15 15h6v6h-6zM9 6h6a3 3 0 0 1 3 3v6"></path>
    </symbol>
    <symbol id="i-chart" viewBox="0 0 24 24" fill="none" stroke="currentColor" stroke-width="1.75" stroke-linecap="round" stroke-linejoin="round">
      <path d="M3 3v18h18M7 15l4-4 3 3 5-6"></path>
    </symbol>
    <symbol id="i-layout" viewBox="0 0 24 24" fill="none" stroke="currentColor" stroke-width="1.75" stroke-linecap="round" stroke-linejoin="round">
      <rect x="3" y="3" width="18" height="18" rx="2"></rect><path d="M3 9h18M9 21V9"></path>
    </symbol>
    <symbol id="i-search" viewBox="0 0 24 24" fill="none" stroke="currentColor" stroke-width="1.75" stroke-linecap="round" stroke-linejoin="round">
      <circle cx="11" cy="11" r="8"></circle><path d="M21 21l-4.3-4.3"></path>
    </symbol>
    <symbol id="i-plus" viewBox="0 0 24 24" fill="none" stroke="currentColor" stroke-width="1.75" stroke-linecap="round" stroke-linejoin="round">
      <path d="M12 5v14M5 12h14"></path>
    </symbol>
    <symbol id="i-chev-down" viewBox="0 0 24 24" fill="none" stroke="currentColor" stroke-width="1.75" stroke-linecap="round" stroke-linejoin="round"><path d="M6 9l6 6 6-6"></path></symbol>
    <symbol id="i-chev-left" viewBox="0 0 24 24" fill="none" stroke="currentColor" stroke-width="1.75" stroke-linecap="round" stroke-linejoin="round"><path d="M15 18l-6-6 6-6"></path></symbol>
    <symbol id="i-chev-right" viewBox="0 0 24 24" fill="none" stroke="currentColor" stroke-width="1.75" stroke-linecap="round" stroke-linejoin="round"><path d="M9 18l6-6-6-6"></path></symbol>
    <symbol id="i-copy" viewBox="0 0 24 24" fill="none" stroke="currentColor" stroke-width="1.75" stroke-linecap="round" stroke-linejoin="round">
      <rect x="9" y="9" width="13" height="13" rx="2"></rect><path d="M5 15H4a2 2 0 0 1-2-2V4a2 2 0 0 1 2-2h9a2 2 0 0 1 2 2v1"></path>
    </symbol>
    <symbol id="i-external" viewBox="0 0 24 24" fill="none" stroke="currentColor" stroke-width="1.75" stroke-linecap="round" stroke-linejoin="round">
      <path d="M18 13v6a2 2 0 0 1-2 2H5a2 2 0 0 1-2-2V8a2 2 0 0 1 2-2h6M15 3h6v6M10 14L21 3"></path>
    </symbol>
    <symbol id="i-bell" viewBox="0 0 24 24" fill="none" stroke="currentColor" stroke-width="1.75" stroke-linecap="round" stroke-linejoin="round">
      <path d="M18 8a6 6 0 0 0-12 0c0 7-3 9-3 9h18s-3-2-3-9M14 21a2 2 0 0 1-4 0"></path>
    </symbol>
    <symbol id="i-more" viewBox="0 0 24 24" fill="currentColor">
      <circle cx="5" cy="12" r="1.6"></circle><circle cx="12" cy="12" r="1.6"></circle><circle cx="19" cy="12" r="1.6"></circle>
    </symbol>
    <symbol id="i-check" viewBox="0 0 24 24" fill="none" stroke="currentColor" stroke-width="2" stroke-linecap="round" stroke-linejoin="round">
      <path d="M20 6L9 17l-5-5"></path>
    </symbol>
    <symbol id="i-mail" viewBox="0 0 24 24" fill="none" stroke="currentColor" stroke-width="1.75" stroke-linecap="round" stroke-linejoin="round">
      <rect x="2" y="4" width="20" height="16" rx="2"></rect><path d="M22 6l-10 7L2 6"></path>
    </symbol>
    <symbol id="i-refresh" viewBox="0 0 24 24" fill="none" stroke="currentColor" stroke-width="1.75" stroke-linecap="round" stroke-linejoin="round">
      <path d="M3 12a9 9 0 0 1 15-6.7L21 8M21 3v5h-5M21 12a9 9 0 0 1-15 6.7L3 16M3 21v-5h5"></path>
    </symbol>
    <symbol id="i-arrow-left" viewBox="0 0 24 24" fill="none" stroke="currentColor" stroke-width="1.75" stroke-linecap="round" stroke-linejoin="round"><path d="M19 12H5M12 19l-7-7 7-7"></path></symbol>
    <symbol id="i-arrow-right" viewBox="0 0 24 24" fill="none" stroke="currentColor" stroke-width="1.75" stroke-linecap="round" stroke-linejoin="round"><path d="M5 12h14M12 5l7 7-7 7"></path></symbol>
    <symbol id="i-x" viewBox="0 0 24 24" fill="none" stroke="currentColor" stroke-width="1.75" stroke-linecap="round" stroke-linejoin="round"><path d="M18 6L6 18M6 6l12 12"></path></symbol>
    <symbol id="i-trash" viewBox="0 0 24 24" fill="none" stroke="currentColor" stroke-width="1.75" stroke-linecap="round" stroke-linejoin="round">
      <path d="M3 6h18M19 6l-1 14a2 2 0 0 1-2 2H8a2 2 0 0 1-2-2L5 6M8 6V4a2 2 0 0 1 2-2h4a2 2 0 0 1 2 2v2"></path>
    </symbol>
    <symbol id="i-warn" viewBox="0 0 24 24" fill="none" stroke="currentColor" stroke-width="1.75" stroke-linecap="round" stroke-linejoin="round">
      <path d="M10.3 3.86a2 2 0 0 1 3.4 0l8.2 13.3a2 2 0 0 1-1.7 3.06H3.8a2 2 0 0 1-1.7-3.06l8.2-13.3z"></path>
      <path d="M12 9v4M12 17h.01"></path>
    </symbol>
    <symbol id="i-eye" viewBox="0 0 24 24" fill="none" stroke="currentColor" stroke-width="1.75" stroke-linecap="round" stroke-linejoin="round">
      <path d="M1 12s4-8 11-8 11 8 11 8-4 8-11 8-11-8-11-8z"></path><circle cx="12" cy="12" r="3"></circle>
    </symbol>
    <symbol id="i-handle" viewBox="0 0 24 24" fill="currentColor">
      <circle cx="9" cy="6" r="1.4"></circle><circle cx="15" cy="6" r="1.4"></circle>
      <circle cx="9" cy="12" r="1.4"></circle><circle cx="15" cy="12" r="1.4"></circle>
      <circle cx="9" cy="18" r="1.4"></circle><circle cx="15" cy="18" r="1.4"></circle>
    </symbol>
    <symbol id="i-pin" viewBox="0 0 24 24" fill="none" stroke="currentColor" stroke-width="1.75" stroke-linecap="round" stroke-linejoin="round">
      <path d="M21 10c0 7-9 13-9 13s-9-6-9-13a9 9 0 0 1 18 0z"></path><circle cx="12" cy="10" r="3"></circle>
    </symbol>
    <symbol id="i-lock" viewBox="0 0 24 24" fill="none" stroke="currentColor" stroke-width="1.75" stroke-linecap="round" stroke-linejoin="round">
      <rect x="3" y="11" width="18" height="11" rx="2"></rect><path d="M7 11V7a5 5 0 0 1 10 0v4"></path>
    </symbol>
    <symbol id="i-zap" viewBox="0 0 24 24" fill="none" stroke="currentColor" stroke-width="1.75" stroke-linecap="round" stroke-linejoin="round">
      <path d="M13 2L3 14h9l-1 8 10-12h-9l1-8z"></path>
    </symbol>
  </defs>
</svg>